<mxfile host="app.diagrams.net" modified="2024-03-20T03:11:33.522Z" agent="Mozilla/5.0 (Windows NT 10.0; Win64; x64) AppleWebKit/537.36 (KHTML, like Gecko) Chrome/122.0.0.0 Safari/537.36" version="24.0.3" etag="sH6N9xZer3lDDn2E07gW" type="github">
  <diagram name="Page-1" id="aq3w8oqEeswQFYZtGCID">
    <mxGraphModel>
      <root>
        <mxCell id="0" />
        <mxCell id="1" parent="0" />
      </root>
    </mxGraphModel>
  </diagram>
</mxfile>
